<svg width="16" height="16" viewBox="0 0 16 16" fill="currentColor" xmlns="http://www.w3.org/2000/svg">
<g id="NDS Icon">
<path id="Vector" fill-rule="evenodd" clip-rule="evenodd" d="M6.2717 2.3051C7.04345 0.982083 8.95505 0.982083 9.72679 2.30509L14.4055 10.3256C15.1832 11.6589 14.2215 13.3333 12.6779 13.3333H3.32064C1.77706 13.3333 0.815314 11.6589 1.59308 10.3256L6.2717 2.3051ZM7.99992 5.33334C8.36812 5.33334 8.66659 5.63182 8.66659 6.00001V8.00001C8.66659 8.36821 8.36812 8.66668 7.99992 8.66668C7.63172 8.66668 7.33325 8.36821 7.33325 8.00001V6.00001C7.33325 5.63182 7.63172 5.33334 7.99992 5.33334ZM7.16659 10C7.16659 9.53974 7.53965 9.16668 7.99992 9.16668C8.46019 9.16668 8.83325 9.53974 8.83325 10C8.83325 10.4603 8.46019 10.8333 7.99992 10.8333C7.53965 10.8333 7.16659 10.4603 7.16659 10Z" fill="currentColor" />
</g>
</svg>
