<svg width="24" height="24" viewBox="0 0 24 24" fill="currentColor" xmlns="http://www.w3.org/2000/svg">
<path fill-rule="evenodd" clip-rule="evenodd" d="M3.75 4C4.30228 4 4.75 4.44772 4.75 5V13C4.75 13.5523 5.19772 14 5.75 14H17.3358L15.0429 11.7071C14.6524 11.3166 14.6524 10.6834 15.0429 10.2929C15.4334 9.90237 16.0666 9.90237 16.4571 10.2929L20.4571 14.2929C20.8476 14.6834 20.8476 15.3166 20.4571 15.7071L16.4571 19.7071C16.0666 20.0976 15.4334 20.0976 15.0429 19.7071C14.6524 19.3166 14.6524 18.6834 15.0429 18.2929L17.3358 16H5.75C4.09315 16 2.75 14.6569 2.75 13V5C2.75 4.44772 3.19772 4 3.75 4Z" fill="currentColor"/>
</svg>
