<svg width="24" height="24" viewBox="0 0 24 24" fill="currentColor" xmlns="http://www.w3.org/2000/svg">
<path fill-rule="evenodd" clip-rule="evenodd" d="M12 17.7453C10.8662 18.5362 9.48725 19 8 19C4.13401 19 1 15.866 1 12C1 8.13401 4.13401 5 8 5C9.48725 5 10.8662 5.46381 12 6.25469C13.1338 5.46381 14.5128 5 16 5C19.866 5 23 8.13401 23 12C23 15.866 19.866 19 16 19C14.5128 19 13.1338 18.5362 12 17.7453ZM10.5003 7.66908C9.76476 7.24356 8.91083 7 8 7C5.23858 7 3 9.23858 3 12C3 14.7614 5.23858 17 8 17C8.91083 17 9.76477 16.7565 10.5003 16.3309C10.415 16.2227 10.3328 16.112 10.2538 15.9988C9.46348 14.8652 9 13.4867 9 12C9 10.3648 9.56067 8.86059 10.5003 7.66908ZM21 12C21 14.7614 18.7614 17 16 17C13.2386 17 11 14.7614 11 12C11 9.23858 13.2386 7 16 7C18.7614 7 21 9.23858 21 12Z" fill="currentColor" />
</svg>
