<svg width="24" height="24" viewBox="0 0 24 24" fill="currentColor" xmlns="http://www.w3.org/2000/svg">
<path fill-rule="evenodd" clip-rule="evenodd" d="M12 0C5.37258 0 0 5.37258 0 12C0 18.6274 5.37258 24 12 24C18.6274 24 24 18.6274 24 12C24 5.37258 18.6274 0 12 0ZM16.5288 9.75996C16.9484 9.24698 16.8728 8.49096 16.3598 8.07128C15.847 7.65162 15.091 7.72722 14.6712 8.24015L10.111 13.8139L8.64853 12.3515C8.1799 11.8829 7.4201 11.8829 6.95147 12.3515C6.48284 12.8201 6.48284 13.5799 6.95147 14.0485L9.35147 16.4485C9.5912 16.6883 9.92112 16.8155 10.2598 16.7986C10.5984 16.7816 10.914 16.6223 11.1288 16.36L16.5288 9.75996Z" fill="currentColor"/>
</svg>
