<svg width="24" height="24" viewBox="0 0 24 24" fill="currentColor" xmlns="http://www.w3.org/2000/svg">
<path fill-rule="evenodd" clip-rule="evenodd" d="M17.3761 2H11.0683C10.4826 1.99998 9.97722 1.99997 9.56108 2.03397C9.12181 2.06986 8.6849 2.1491 8.26448 2.36331C7.63727 2.68289 7.12733 3.19282 6.80776 3.82003C6.59355 4.24046 6.5143 4.67737 6.47841 5.11663C6.44793 5.48973 6.44479 5.93443 6.44448 6.44448C5.93443 6.44479 5.48973 6.44793 5.11663 6.47841C4.67737 6.5143 4.24046 6.59355 3.82003 6.80776C3.19282 7.12733 2.68289 7.63727 2.36331 8.26448C2.1491 8.6849 2.06986 9.12181 2.03397 9.56108C1.99997 9.97722 1.99998 10.4826 2 11.0682V17.3761C1.99998 17.9619 1.99997 18.4672 2.03397 18.8833C2.06986 19.3227 2.1491 19.7596 2.36331 20.18C2.68289 20.8072 3.19283 21.3171 3.82003 21.6367C4.24046 21.8509 4.67737 21.9301 5.11663 21.966C5.5328 22 6.03805 22 6.62371 22H12.9317C13.5173 22 14.0228 22 14.4389 21.966C14.8782 21.9301 15.3151 21.8509 15.7356 21.6367C16.3628 21.3171 16.8727 20.8072 17.1922 20.18C17.4064 19.7596 17.4857 19.3227 17.5216 18.8833C17.5521 18.5102 17.5552 18.0656 17.5556 17.5556C18.0656 17.5552 18.5102 17.5521 18.8833 17.5216C19.3227 17.4857 19.7596 17.4064 20.18 17.1922C20.8072 16.8727 21.3171 16.3628 21.6367 15.7356C21.8509 15.3151 21.9301 14.8782 21.966 14.4389C22 14.0228 22 13.5176 22 12.9318V6.62387C22 6.03819 22 5.5328 21.966 5.11663C21.9301 4.67737 21.8509 4.24046 21.6367 3.82003C21.3171 3.19282 20.8072 2.68289 20.18 2.36331C19.7596 2.1491 19.3227 2.06986 18.8833 2.03397C18.4672 1.99997 17.9619 1.99998 17.3761 2ZM17.5556 15.3332C18.0723 15.3328 18.4256 15.3293 18.7024 15.3068C19.0042 15.2821 19.1161 15.2402 19.1711 15.2122C19.3802 15.1057 19.5501 14.9358 19.6567 14.7267C19.6847 14.6717 19.7266 14.5598 19.7512 14.258C19.7769 13.9431 19.7778 13.5296 19.7778 12.8889V6.66667C19.7778 6.02606 19.7769 5.61242 19.7512 5.2976C19.7266 4.99576 19.6847 4.88385 19.6567 4.8289C19.5501 4.61983 19.3802 4.44986 19.1711 4.34333C19.1161 4.31533 19.0042 4.27348 18.7024 4.24881C18.3876 4.22309 17.974 4.22222 17.3333 4.22222H11.1111C10.4704 4.22222 10.0569 4.22309 9.74204 4.24881C9.4402 4.27348 9.32829 4.31533 9.27334 4.34333C9.06428 4.44986 8.8943 4.61983 8.78778 4.8289C8.75978 4.88385 8.71792 4.99576 8.69326 5.2976C8.67063 5.57442 8.66724 5.92767 8.66674 6.44445H12.9317C13.5174 6.44442 14.0228 6.44441 14.4389 6.47841C14.8782 6.5143 15.3151 6.59355 15.7356 6.80776C16.3628 7.12733 16.8727 7.63728 17.1922 8.26448C17.4064 8.6849 17.4857 9.12181 17.5216 9.56108C17.5556 9.97722 17.5556 10.4826 17.5556 11.0683V15.3332Z" fill="currentColor"/>
</svg>
