<svg width="24" height="24" viewBox="0 0 24 24" fill="currentColor" xmlns="http://www.w3.org/2000/svg">
<path d="M1 22C1 21.4477 1.44772 21 2 21H22C22.5523 21 23 21.4477 23 22C23 22.5523 22.5523 23 22 23H2C1.44772 23 1 22.5523 1 22Z" fill="currentColor"/>
<path d="M8.46443 9.91421C8.07391 9.52369 8.07391 8.89052 8.46443 8.5C8.85495 8.10948 9.48812 8.10948 9.87864 8.5L12 10.6213L14.1213 8.5C14.5118 8.10948 15.145 8.10948 15.5355 8.5C15.926 8.89052 15.926 9.52369 15.5355 9.91421L12.7071 12.7426C12.3165 13.1332 11.6834 13.1332 11.2929 12.7426L8.46443 9.91421Z" fill="currentColor"/>
<path fill-rule="evenodd" clip-rule="evenodd" d="M21 10C21 14.9706 16.9706 19 12 19C7.02944 19 3 14.9706 3 10C3 5.02944 7.02944 1 12 1C16.9706 1 21 5.02944 21 10ZM19 10C19 13.866 15.866 17 12 17C8.13401 17 5 13.866 5 10C5 6.13401 8.13401 3 12 3C15.866 3 19 6.13401 19 10Z" fill="currentColor"/>
</svg>
