<svg width="24" height="24" viewBox="0 0 24 24" fill="currentColor" xmlns="http://www.w3.org/2000/svg">
<path d="M19 6H13V19C13 19.5523 12.5523 20 12 20H5C3.34315 20 2 18.6569 2 17V7C2 5.34314 3.34315 4 5 4H19C20.6569 4 22 5.34315 22 7V10C22 10.5523 21.5523 11 21 11C20.4477 11 20 10.5523 20 10V7C20 6.44772 19.5523 6 19 6Z" fill="currentColor"/>
<path d="M22.2071 13.2929C21.2643 12.3501 19.7357 12.3501 18.7929 13.2929L15.3787 16.7071C14.8161 17.2697 14.5 18.0328 14.5 18.8284V20C14.5 20.5523 14.9477 21 15.5 21H16.6716C17.4672 21 18.2303 20.6839 18.7929 20.1213L22.2071 16.7071C23.1499 15.7643 23.1499 14.2357 22.2071 13.2929Z" fill="currentColor"/>
</svg>
