<svg width="32" height="32" viewBox="0 0 32 32" fill="currentColor" xmlns="http://www.w3.org/2000/svg">
<g id="NDS Icon">
<path id="Vector" fill-rule="evenodd" clip-rule="evenodd" d="M12.5436 4.61019C14.0871 1.96417 17.9103 1.96417 19.4537 4.61018L28.8111 20.6512C30.3665 23.3178 28.4431 26.6667 25.3559 26.6667H6.64143C3.55427 26.6667 1.63078 23.3178 3.18631 20.6512L12.5436 4.61019ZM16 10.6667C16.7364 10.6667 17.3333 11.2636 17.3333 12V16C17.3333 16.7364 16.7364 17.3334 16 17.3334C15.2636 17.3334 14.6667 16.7364 14.6667 16V12C14.6667 11.2636 15.2636 10.6667 16 10.6667ZM14.3333 20C14.3333 19.0795 15.0795 18.3334 16 18.3334C16.9205 18.3334 17.6667 19.0795 17.6667 20C17.6667 20.9206 16.9205 21.6667 16 21.6667C15.0795 21.6667 14.3333 20.9206 14.3333 20Z" fill="currentColor"/>
</g>
</svg>
