<svg width="24" height="24" viewBox="0 0 24 24" fill="currentColor" xmlns="http://www.w3.org/2000/svg">
<path fill-rule="evenodd" clip-rule="evenodd" d="M11.9999 4C15.9516 3.99997 19.7905 6.27233 22.3566 10.5831C22.8761 11.4558 22.8761 12.5441 22.3566 13.4168C19.7905 17.7276 15.9516 20 11.9999 20C8.04821 20 4.20935 17.7277 1.64321 13.4169C1.12371 12.5442 1.12371 11.4559 1.64321 10.5832C4.20935 6.27243 8.0482 4.00003 11.9999 4ZM8.49992 12C8.49992 10.067 10.0669 8.5 11.9999 8.5C13.9329 8.5 15.4999 10.067 15.4999 12C15.4999 13.933 13.9329 15.5 11.9999 15.5C10.0669 15.5 8.49992 13.933 8.49992 12Z" fill="currentColor"/>
</svg>
