<svg width="24" height="24" viewBox="0 0 24 24" fill="currentColor" xmlns="http://www.w3.org/2000/svg">
<path fill-rule="evenodd" clip-rule="evenodd" d="M12.5666 5.17596C12.2253 4.94135 11.7747 4.94135 11.4334 5.17596L5.43347 9.30096C5.16213 9.4875 5 9.79569 5 10.125V18.0729C5 18.6252 5.44771 19.0729 6 19.0729H8.5V16.5729C8.5 14.64 10.067 13.0729 12 13.0729C13.933 13.0729 15.5 14.64 15.5 16.5729V19.0729H18C18.5523 19.0729 19 18.6252 19 18.0729V10.125C19 9.79565 18.8379 9.48748 18.5666 9.30096L12.5666 5.17596ZM10.3004 3.52787C11.3241 2.82404 12.6759 2.82404 13.6996 3.52787L19.6996 7.65287C20.5137 8.21257 21 9.13716 21 10.125V18.0729C21 19.7298 19.6569 21.0729 18 21.0729H14.5C13.9477 21.0729 13.5 20.6252 13.5 20.0729V16.5729C13.5 15.7445 12.8284 15.0729 12 15.0729C11.1716 15.0729 10.5 15.7445 10.5 16.5729V20.0729C10.5 20.6252 10.0523 21.0729 9.5 21.0729H6C4.34315 21.0729 3 19.7298 3 18.0729V10.125C3 9.13713 3.48633 8.21255 4.30041 7.65287L10.3004 3.52787Z" fill="currentColor"/>
</svg>
