<svg width="24" height="24" viewBox="0 0 24 24" fill="currentColor" xmlns="http://www.w3.org/2000/svg">
    <path fill-rule="evenodd" clip-rule="evenodd"
          d="M5 4H4C3.44772 4 3 3.55228 3 3C3 2.44772 3.44772 2 4 2H20C20.5523 2 21 2.44772 21 3C21 3.55228 20.5523 4 20 4H19V6.92963C19 7.93269 18.4987 8.86939 17.6641 9.42578L13.8028 12L17.6641 14.5742C18.4987 15.1306 19 16.0673 19 17.0704V20H20C20.5523 20 21 20.4477 21 21C21 21.5523 20.5523 22 20 22H4C3.44772 22 3 21.5523 3 21C3 20.4477 3.44772 20 4 20H5V17.0704C5 16.0673 5.5013 15.1306 6.3359 14.5742L10.1972 12L6.3359 9.42578C5.5013 8.86939 5 7.93269 5 6.92963V4ZM7 4V6.92963C7 6.95321 7.00083 6.97668 7.00247 7H16.9975C16.9992 6.97668 17 6.95321 17 6.92963V4H7ZM17 18V17.0704C17 16.736 16.8329 16.4238 16.5547 16.2383L12 13.2019L7.4453 16.2383C7.1671 16.4238 7 16.736 7 17.0704V18H17Z"
          fill="currentColor"/>
</svg>
