<svg width="32" height="32" viewBox="0 0 32 32" fill="currentColor" xmlns="http://www.w3.org/2000/svg">
    <g id="NDS Icon">
        <path id="Vector" fill-rule="evenodd" clip-rule="evenodd" d="M16 0C7.16344 0 0 7.16344 0 16C0 24.8365 7.16344 32 16 32C24.8365 32 32 24.8365 32 16C32 7.16344 24.8365 0 16 0ZM12.8 14.4C12.8 13.5163 13.5163 12.8 14.4 12.8H16C16.8837 12.8 17.6 13.5163 17.6 14.4V22.4C17.6 23.2837 16.8837 24 16 24C15.1163 24 14.4 23.2837 14.4 22.4V16C13.5163 16 12.8 15.2837 12.8 14.4ZM16 8C15.1163 8 14.4 8.71635 14.4 9.6C14.4 10.4836 15.1163 11.2 16 11.2C16.8837 11.2 17.6 10.4836 17.6 9.6C17.6 8.71635 16.8837 8 16 8Z" fill="currentColor"/>
    </g>
</svg>
