<svg width="24" height="24" viewBox="0 0 24 24" fill="currentColor" xmlns="http://www.w3.org/2000/svg">
<path fill-rule="evenodd" clip-rule="evenodd" d="M12 0C5.37258 0 0 5.37258 0 12C0 18.6274 5.37258 24 12 24C18.6274 24 24 18.6274 24 12C24 5.37258 18.6274 0 12 0ZM9.6 10.8C9.6 10.1372 10.1372 9.6 10.8 9.6H12C12.6628 9.6 13.2 10.1372 13.2 10.8V16.8C13.2 17.4628 12.6628 18 12 18C11.3372 18 10.8 17.4628 10.8 16.8V12C10.1372 12 9.6 11.4628 9.6 10.8ZM12 6C11.3372 6 10.8 6.53726 10.8 7.2C10.8 7.86274 11.3372 8.4 12 8.4C12.6628 8.4 13.2 7.86274 13.2 7.2C13.2 6.53726 12.6628 6 12 6Z" fill="currentColor"/>
</svg>
