<svg width="24" height="24" viewBox="0 0 24 24" fill="currentColor" xmlns="http://www.w3.org/2000/svg">
<path fill-rule="evenodd" clip-rule="evenodd" d="M18 12C18 14.9979 15.8014 17.4822 12.9286 17.9286C12.4823 20.8013 9.99789 23 7 23C3.68629 23 1 20.3137 1 17C1 14.0021 3.19865 11.5177 6.07142 11.0714C6.51775 8.19864 9.00211 6 12 6C15.3137 6 18 8.68629 18 12ZM6.10088 13.1014C6.55185 15.532 8.46795 17.4481 10.8985 17.8991C10.4906 19.6753 8.89998 21 7 21C4.79086 21 3 19.2091 3 17C3 15.1 4.3247 13.5094 6.10088 13.1014ZM12 16C14.2091 16 16 14.2091 16 12C16 9.79086 14.2091 8 12 8C9.79086 8 8 9.79086 8 12C8 14.2091 9.79086 16 12 16Z" fill="currentColor"/>
<path d="M16 1C15.4477 1 15 1.44772 15 2C15 2.55228 15.4477 3 16 3H21V8C21 8.55228 21.4477 9 22 9C22.5523 9 23 8.55228 23 8V2C23 1.44772 22.5523 1 22 1H16Z" fill="currentColor"/>
</svg>
