<svg width="24" height="24" viewBox="0 0 24 24" fill="currentColor" xmlns="http://www.w3.org/2000/svg">
<path d="M9.60421 8.19007L5.67123 4.25708C7.3951 2.84638 9.5987 2 12 2C14.4013 2 16.6049 2.84638 18.3288 4.2571L14.3958 8.19008C13.7021 7.75292 12.8806 7.5 12 7.5C11.1194 7.5 10.298 7.75292 9.60421 8.19007Z" fill="currentColor"/>
<path d="M2 12C2 9.59875 2.84635 7.39517 4.25703 5.6713L8.19002 9.60429C7.7529 10.298 7.5 11.1195 7.5 12C7.5 12.8806 7.75292 13.7021 8.19008 14.3958L4.2571 18.3288C2.84638 16.6049 2 14.4013 2 12Z" fill="currentColor"/>
<path d="M19.743 5.67133L15.81 9.60433C16.2471 10.298 16.5 11.1195 16.5 12C16.5 12.8806 16.2471 13.702 15.8099 14.3958L19.7429 18.3288C21.1536 16.6049 22 14.4013 22 12C22 9.59876 21.1537 7.39519 19.743 5.67133Z" fill="currentColor"/>
<path d="M14.3957 15.81L18.3287 19.743C16.6048 21.1536 14.4013 22 12 22C9.59876 22 7.39519 21.1537 5.67133 19.743L9.60433 15.81C10.298 16.2471 11.1195 16.5 12 16.5C12.8805 16.5 13.702 16.2471 14.3957 15.81Z" fill="currentColor"/>
</svg>
