<svg width="24" height="24" viewBox="0 0 24 24" fill="currentColor" xmlns="http://www.w3.org/2000/svg">
<path fill-rule="evenodd" clip-rule="evenodd" d="M4 3C4.55228 3 5 3.44772 5 4V14.5858L7.54289 12.0429C8.62377 10.962 10.3762 10.962 11.4571 12.0429C11.7569 12.3427 12.2431 12.3427 12.5429 12.0429L14.8787 9.70711C16.0503 8.53553 17.9497 8.53554 19.1213 9.70711L19.7071 10.2929C20.0976 10.6834 20.0976 11.3166 19.7071 11.7071C19.3166 12.0976 18.6834 12.0976 18.2929 11.7071L17.7071 11.1213C17.3166 10.7308 16.6834 10.7308 16.2929 11.1213L13.9571 13.4571C12.8762 14.538 11.1238 14.538 10.0429 13.4571C9.74306 13.1573 9.25694 13.1573 8.95711 13.4571L5 17.4142V18C5 18.5523 5.44772 19 6 19H20C20.5523 19 21 19.4477 21 20C21 20.5523 20.5523 21 20 21H6C4.34315 21 3 19.6569 3 18V4C3 3.44772 3.44772 3 4 3Z" fill="currentColor"/>
</svg>
