<svg width="24" height="24" viewBox="0 0 24 24" fill="currentColor" xmlns="http://www.w3.org/2000/svg">
<path d="M8 9V11H11V9H8Z" fill="currentColor"/>
<path fill-rule="evenodd" clip-rule="evenodd" d="M5 3C3.34315 3 2 4.34315 2 6V17.5C2 19.433 3.567 21 5.5 21H18.5C20.433 21 22 19.433 22 17.5V14C22 12.3431 20.6569 11 19 11H17V6C17 4.34315 15.6569 3 14 3H5ZM20 17.5C20 18.3284 19.3284 19 18.5 19C17.6716 19 17 18.3284 17 17.5V13H19C19.5523 13 20 13.4477 20 14V17.5ZM7 15C6.44772 15 6 15.4477 6 16C6 16.5523 6.44772 17 7 17H12C12.5523 17 13 16.5523 13 16C13 15.4477 12.5523 15 12 15H7ZM6 8C6 7.44772 6.44772 7 7 7H12C12.5523 7 13 7.44772 13 8V12C13 12.5523 12.5523 13 12 13H7C6.44772 13 6 12.5523 6 12V8Z" fill="currentColor"/>
</svg>
