<svg width="24" height="24" viewBox="0 0 24 24" fill="currentColor" xmlns="http://www.w3.org/2000/svg">
<path d="M12.0001 5C10.0896 5 8.32409 5.76414 7.04296 7H8.75C9.30228 7 9.75 7.44772 9.75 8C9.75 8.55228 9.30228 9 8.75 9H5.75C4.7835 9 4 8.2165 4 7.25V4C4 3.44772 4.44771 3 5 3C5.55228 3 6 3.44772 6 4V5.24419C7.60793 3.84628 9.72363 3 12.0001 3C16.9707 3 21.0001 7.02944 21.0001 12C21.0001 12.5523 20.5524 13 20.0001 13C19.4478 13 19.0001 12.5523 19.0001 12C19.0001 8.13401 15.8661 5 12.0001 5Z" fill="currentColor"/>
<path d="M4 11C4.55228 11 5 11.4477 5 12C5 15.866 8.13401 19 12 19C13.9105 19 15.676 18.2359 16.9572 17H15.0117C14.4594 17 14.0117 16.5523 14.0117 16C14.0117 15.4477 14.4594 15 15.0117 15H18.2617C19.2282 15 20.0117 15.7835 20.0117 16.75V20C20.0117 20.5523 19.564 21 19.0117 21C18.4594 21 18.0117 20.5523 18.0117 20V18.7457C16.4024 20.1496 14.282 21 12 21C7.02944 21 3 16.9706 3 12C3 11.4477 3.44772 11 4 11Z" fill="currentColor"/>
</svg>
