<svg width="20" height="20" viewBox="0 0 20 20" fill="none" xmlns="http://www.w3.org/2000/svg">
    <path id="Vector" fill-rule="evenodd" clip-rule="evenodd"
          d="M9.16667 4.44445C6.55866 4.44445 4.44445 6.55866 4.44445 9.16667C4.44445 11.7747 6.55866 13.8889 9.16667 13.8889C11.7747 13.8889 13.8889 11.7747 13.8889 9.16667C13.8889 6.55866 11.7747 4.44445 9.16667 4.44445ZM2.22223 9.16667C2.22223 5.33137 5.33137 2.22223 9.16667 2.22223C13.002 2.22223 16.1111 5.33137 16.1111 9.16667C16.1111 10.6833 15.6249 12.0864 14.7999 13.2286L17.4523 15.881C17.8863 16.3149 17.8863 17.0184 17.4523 17.4523C17.0184 17.8863 16.3149 17.8863 15.881 17.4523L13.2286 14.7999C12.0864 15.6249 10.6833 16.1111 9.16667 16.1111C5.33137 16.1111 2.22223 13.002 2.22223 9.16667Z"
          fill="currentColor" />
</svg>
