<svg width="24" height="24" viewBox="0 0 24 24" fill="currentColor" xmlns="http://www.w3.org/2000/svg">
<path fill-rule="evenodd" clip-rule="evenodd" d="M11 5.33332C7.8704 5.33332 5.33334 7.87038 5.33334 11C5.33334 14.1296 7.87039 16.6667 11 16.6667C14.1296 16.6667 16.6667 14.1296 16.6667 11C16.6667 7.87038 14.1296 5.33332 11 5.33332ZM2.66667 11C2.66667 6.39762 6.39764 2.66666 11 2.66666C15.6024 2.66666 19.3333 6.39762 19.3333 11C19.3333 12.82 18.7499 14.5037 17.7599 15.8743L20.9428 19.0572C21.4635 19.5779 21.4635 20.4221 20.9428 20.9428C20.4221 21.4635 19.5779 21.4635 19.0572 20.9428L15.8743 17.7599C14.5037 18.7499 12.82 19.3333 11 19.3333C6.39764 19.3333 2.66667 15.6024 2.66667 11Z" fill="currentColor"/>
</svg>
