<svg width="24" height="24" viewBox="0 0 24 24" fill="currentColor" xmlns="http://www.w3.org/2000/svg">
<path d="M12.7071 3.29289C12.5196 3.10536 12.2652 3 12 3C11.7348 3 11.4804 3.10536 11.2929 3.29289L6.79289 7.79289C6.40237 8.18342 6.40237 8.81658 6.79289 9.20711C7.18342 9.59763 7.81658 9.59763 8.20711 9.20711L11 6.41422V15.25C11 15.8023 11.4477 16.25 12 16.25C12.5523 16.25 13 15.8023 13 15.25V6.41421L15.7929 9.20711C16.1834 9.59763 16.8166 9.59763 17.2071 9.20711C17.5976 8.81658 17.5976 8.18342 17.2071 7.79289L12.7071 3.29289Z" fill="currentColor"/>
<path d="M5 12.75C5 12.1977 4.55228 11.75 4 11.75C3.44772 11.75 3 12.1977 3 12.75V18C3 19.6569 4.34315 21 6 21H18C19.6569 21 21 19.6569 21 18V12.75C21 12.1977 20.5523 11.75 20 11.75C19.4477 11.75 19 12.1977 19 12.75V18C19 18.5523 18.5523 19 18 19H6C5.44772 19 5 18.5523 5 18V12.75Z" fill="currentColor"/>
</svg>
