<svg width="24" height="24" viewBox="0 0 24 24" fill="currentColor" xmlns="http://www.w3.org/2000/svg">
<path d="M9.5 10.75C9.5 11.4403 8.94036 12 8.25 12C7.55964 12 7 11.4403 7 10.75C7 10.0596 7.55964 9.49999 8.25 9.49999C8.94036 9.49999 9.5 10.0596 9.5 10.75Z" fill="currentColor"/>
<path fill-rule="evenodd" clip-rule="evenodd" d="M8.5809 6.45003C8.75061 6.78701 9.09593 7.00017 9.474 7.00017H14C16.7617 7.00017 19 9.23843 19 12.0001C19 13.4764 18.3569 14.7995 17.3322 15.7188C17.1208 15.9085 17 16.1792 17 16.4632V19.0002H15C15 17.8956 14.1046 17.0002 13 17.0002H11C9.89542 17.0002 9 17.8956 9 19.0002H7V17.0001C7 16.644 6.81062 16.3147 6.5028 16.1357C5.74486 15.6948 5.30204 15.2543 4.86571 14.4996C4.68699 14.1906 4.35704 14.0002 4 14.0002H3V10.9352L4 10.9352C4.41993 10.9352 4.79513 10.6728 4.93926 10.2784C5.25347 9.4185 5.62722 8.73235 6.16999 8.2425C6.38009 8.05289 6.5 7.78314 6.5 7.50013V5.09792C7.2983 5.26444 7.8181 5.61454 8.13833 5.91217C8.31235 6.07391 8.43063 6.22343 8.50164 6.3251C8.53701 6.37575 8.56013 6.41377 8.5721 6.43443C8.57668 6.44232 8.57959 6.44761 8.5809 6.45003ZM20.7199 13.961C20.9021 13.3394 21 12.6816 21 12.0001C21 8.13383 17.8663 5.00017 14 5.00017H10.0085C9.87889 4.83405 9.71112 4.64351 9.49991 4.44721C8.90931 3.8983 7.99073 3.31624 6.66149 3.09369C5.39072 2.88093 4.5 3.95353 4.5 5.00013V7.08369C3.98098 7.64389 3.60965 8.28665 3.32379 8.93517H3C1.89542 8.93517 1 9.83062 1 10.9352V14.0002C1 15.1048 1.89545 16.0002 3 16.0002H3.44811C3.88102 16.6317 4.3708 17.1193 5 17.551V19.0002C5 20.1048 5.89545 21.0002 7 21.0002H9C10.1046 21.0002 11 20.1048 11 19.0002H13C13 20.1048 13.8954 21.0002 15 21.0002H17C18.1046 21.0002 19 20.1048 19 19.0002V16.8895C19.3295 16.5528 19.6258 16.1831 19.8831 15.7855C20.2285 15.924 20.6054 16.0002 20.999 16.0002C22.6558 16.0002 23.999 14.6571 23.999 13.0002C23.999 12.4554 23.8529 11.9417 23.597 11.4994C23.3204 11.0214 22.7087 10.858 22.2306 11.1346C21.7526 11.4112 21.5893 12.0229 21.8658 12.501C21.9503 12.6471 21.999 12.8164 21.999 13.0002C21.999 13.5525 21.5512 14.0002 20.999 14.0002C20.9017 14.0002 20.8082 13.9865 20.7199 13.961Z" fill="currentColor"/>
</svg>
