<svg width="24" height="24" viewBox="0 0 24 24" fill="currentColor" xmlns="http://www.w3.org/2000/svg">
<path fill-rule="evenodd" clip-rule="evenodd" d="M9.62374 2.84387C10.7157 1.08264 13.2797 1.08264 14.3716 2.84387L15.1994 4.17908C15.3175 4.36955 15.4374 4.55885 15.559 4.74697C15.7821 4.72465 16.0051 4.70022 16.2279 4.67369L17.7889 4.48781C19.8467 4.24276 21.4472 6.24518 20.7492 8.19774L20.2204 9.67681C20.1451 9.88758 20.0717 10.099 20.0004 10.311C20.1568 10.4712 20.3147 10.6299 20.4742 10.7872L21.5929 11.8906C23.0693 13.3468 22.4978 15.8453 20.5364 16.5169L19.0493 17.0261C18.8371 17.0987 18.6258 17.1733 18.4152 17.2498C18.3873 17.4719 18.3616 17.6942 18.3379 17.9169L18.172 19.4787C17.9529 21.54 15.642 22.6504 13.8942 21.5375L12.5685 20.6934C12.3793 20.5729 12.189 20.4542 11.9977 20.3374C11.8063 20.4542 11.616 20.5729 11.4268 20.6934L10.1011 21.5375C8.35335 22.6504 6.04245 21.54 5.8234 19.4787L5.65744 17.9169C5.63378 17.6942 5.60803 17.4719 5.5802 17.2498C5.3696 17.1733 5.15822 17.0987 4.94611 17.0261L3.45895 16.5169C1.49761 15.8453 0.926046 13.3468 2.40242 11.8906L3.52116 10.7872C3.68062 10.6299 3.83856 10.4712 3.99495 10.311C3.92362 10.099 3.85028 9.88758 3.77493 9.67681L3.24618 8.19774C2.54817 6.24518 4.14863 4.24276 6.20649 4.48781L7.76751 4.67369C7.99029 4.70022 8.21326 4.72465 8.4364 4.74697C8.55799 4.55885 8.67784 4.36955 8.79592 4.17908L9.62374 2.84387ZM7.51181 6.1076L6.03455 5.93169C5.04649 5.81403 4.28169 6.77478 4.6154 7.70826L5.11607 9.10878C5.96793 8.15202 6.76767 7.15018 7.51181 6.1076ZM5.64476 10.6878C6.93033 9.30708 8.10885 7.83063 9.1701 6.27121C11.0524 6.41459 12.9429 6.41459 14.8253 6.27121C15.8865 7.83063 17.065 9.30709 18.3506 10.6878C17.792 12.4888 17.3714 14.3298 17.0925 16.1946C15.3345 16.8814 13.6312 17.7008 11.9977 18.6459C10.3641 17.7008 8.66091 16.8814 6.90283 16.1946C6.62391 14.3298 6.20334 12.4888 5.64476 10.6878ZM4.48308 11.8808L3.42349 12.9259C2.71693 13.6228 2.98952 14.8192 3.92997 15.1412L5.33814 15.6233C5.1205 14.3614 4.83506 13.1121 4.48308 11.8808ZM7.11229 17.847L7.26935 19.325C7.37413 20.3111 8.48114 20.8452 9.32013 20.311L10.5741 19.5125C9.4509 18.8957 8.29528 18.3398 7.11229 17.847ZM13.4213 19.5125L14.6752 20.311C15.5142 20.8452 16.6212 20.3111 16.726 19.325L16.8831 17.847C15.7001 18.3398 14.5445 18.8957 13.4213 19.5125ZM18.6572 15.6233L20.0654 15.1412C21.0058 14.8192 21.2784 13.6228 20.5719 12.9259L19.5123 11.8808C19.1603 13.1121 18.8749 14.3614 18.6572 15.6233ZM18.8793 9.10878L19.38 7.70827C19.7137 6.77478 18.9489 5.81403 17.9608 5.93169L16.4836 6.1076C17.2277 7.15018 18.0274 8.15202 18.8793 9.10878ZM13.9188 4.87304C12.639 4.94187 11.3564 4.94187 10.0765 4.87304L10.8596 3.61008C11.3829 2.76601 12.6125 2.76601 13.1358 3.61008L13.9188 4.87304Z" fill="currentColor"/>
</svg>
