<svg xmlns="http://www.w3.org/2000/svg" width="24" height="24" fill="none"><path fill="currentColor" d="M4 5a1 1 0 0 0 0 2h16a1 1 0 1 0 0-2H4ZM4 11a1 1 0 1 0 0 2h5a1 1 0 1 0 0-2H4ZM4 17a1 1 0 1 0 0 2h3a1 1 0 1 0 0-2H4Z"/><path fill="currentColor" fill-rule="evenodd" d="m14.77 11.42.947-1.42h1.566l.947 1.42 1.541-.356 1.165 1.165-.355 1.541 1.419.947v1.566l-1.42.947.356 1.541-1.165 1.165-1.541-.355L17.283 21h-1.567l-.946-1.42-1.541.356-1.165-1.165.355-1.541L11 16.283v-1.567l1.42-.946-.356-1.541 1.165-1.165 1.541.355Zm-.195 4.08a1.925 1.925 0 1 1 3.85 0 1.925 1.925 0 0 1-3.85 0Z" clip-rule="evenodd"/></svg>