<svg width="24" height="24" viewBox="0 0 24 24" fill="currentColor" xmlns="http://www.w3.org/2000/svg">
<path d="M10.8836 22.0253C11.32 22.1311 11.7513 21.8729 11.9244 21.4586C13.0017 17.5732 16.0017 15.5182 16.0017 12.8033V6.348C16.0017 5.20157 15.3381 4.07274 14.1661 3.64597C11.5152 2.68068 9.76815 2.48426 7.04211 2.7205C4.95127 2.9017 3.37955 4.50475 2.94397 6.44066L2.09922 10.1951C1.53654 12.6959 3.43833 15.0731 6.00166 15.0731L9.00166 15.0732C8.53238 17.8889 7.38664 21.1773 10.8836 22.0253Z" fill="currentColor"/>
<path d="M22.0017 12.5732C22.0017 13.6778 21.1062 14.5732 20.0017 14.5732H19.0017C17.8971 14.5732 17.0017 13.6778 17.0017 12.5732V5.57323C17.0017 4.46866 17.8971 3.57323 19.0017 3.57323H20.0017C21.1062 3.57323 22.0017 4.46866 22.0017 5.57323V12.5732Z" fill="currentColor"/>
</svg>
