<svg width="24" height="24" viewBox="0 0 24 24" fill="currentColor" xmlns="http://www.w3.org/2000/svg">
<path fill-rule="evenodd" clip-rule="evenodd" d="M8.12602 5C8.57006 3.27477 10.1362 2 12 2C13.8638 2 15.4299 3.27477 15.874 5H20C20.5523 5 21 5.44772 21 6C21 6.55228 20.5523 7 20 7H19V19C19 20.6569 17.6569 22 16 22H8C6.34315 22 5 20.6569 5 19V7H4C3.44772 7 3 6.55228 3 6C3 5.44772 3.44772 5 4 5H8.12602ZM10.2676 5C10.6134 4.4022 11.2597 4 12 4C12.7403 4 13.3866 4.4022 13.7324 5H10.2676ZM10 10C10.5523 10 11 10.4477 11 11V16C11 16.5523 10.5523 17 10 17C9.44772 17 9 16.5523 9 16V11C9 10.4477 9.44772 10 10 10ZM14 10C14.5523 10 15 10.4477 15 11V16C15 16.5523 14.5523 17 14 17C13.4477 17 13 16.5523 13 16V11C13 10.4477 13.4477 10 14 10Z" fill="currentColor"/>
</svg>
