<svg width="24" height="24" viewBox="0 0 24 24" fill="currentColor" xmlns="http://www.w3.org/2000/svg">
<path fill-rule="evenodd" clip-rule="evenodd" d="M9 17C9 17.5523 8.5523 18 8 18H3C2.4477 18 2 17.5523 2 17V12C2 11.4477 2.4477 11 3 11C3.5523 11 4 11.4477 4 12V14.5858L8.8787 9.7071C10.0503 8.5355 11.9497 8.5355 13.1213 9.7071L14.2929 10.8787C14.6834 11.2692 15.3166 11.2692 15.7071 10.8787L20.2929 6.2929C20.6834 5.9024 21.3166 5.9024 21.7071 6.2929C22.0976 6.6834 22.0976 7.3166 21.7071 7.7071L17.1213 12.2929C15.9497 13.4645 14.0503 13.4645 12.8787 12.2929L11.7071 11.1213C11.3166 10.7308 10.6834 10.7308 10.2929 11.1213L5.4142 16H8C8.5523 16 9 16.4477 9 17Z" fill="currentColor"/>
</svg>
