<svg width="24" height="24" viewBox="0 0 24 24" fill="currentColor" xmlns="http://www.w3.org/2000/svg">
<path fill-rule="evenodd" clip-rule="evenodd" d="M10.1056 2.55279C10.275 2.214 10.6212 2 11 2H11.6156C13.4567 2 14.8634 3.64302 14.5798 5.46215C14.5798 5.46214 14.5798 5.46215 14.5798 5.46215L14.1841 8H18.0631C20.487 8 22.354 10.1387 22.0264 12.5404C22.0264 12.5404 22.0264 12.5404 22.0264 12.5404L21.3446 17.5404C21.0744 19.5224 19.3816 21 17.3813 21H4C2.89545 21 2 20.1046 2 19V12C2 10.8954 2.89545 10 4 10H6.38197L10.1056 2.55279ZM6 12H4V19H6V12ZM8 19H17.3813C18.3814 19 19.2278 18.2612 19.363 17.2702L20.0448 12.2702C20.2086 11.0695 19.2752 10 18.0631 10H13.0161C12.724 10 12.4465 9.87227 12.2565 9.65037C12.0665 9.42847 11.983 9.13459 12.028 8.84595L12.6036 5.15405C12.6981 4.54849 12.2305 4.00145 11.618 4L8 11.2361V19Z" fill="currentColor"/>
</svg>
