<svg width="24" height="24" viewBox="0 0 24 24" fill="currentColor" xmlns="http://www.w3.org/2000/svg">
<path fill-rule="evenodd" clip-rule="evenodd" d="M6.5 3C4.567 3 3 4.567 3 6.5V11.8027C3.88252 11.2922 4.90714 11 6 11C9.31371 11 12 13.6863 12 17C12 18.5367 11.4223 19.9385 10.4722 21H18C19.6569 21 21 19.6569 21 18V11C21 9.34315 19.6569 8 18 8H17V5.41176C17 4.07978 15.9202 3 14.5882 3H6.5ZM15 8V5.41176C15 5.18435 14.8156 5 14.5882 5H6.5C5.67157 5 5 5.67157 5 6.5C5 7.32843 5.67157 8 6.5 8H15ZM15.5 15.75C16.1904 15.75 16.75 15.1904 16.75 14.5C16.75 13.8096 16.1904 13.25 15.5 13.25C14.8096 13.25 14.25 13.8096 14.25 14.5C14.25 15.1904 14.8096 15.75 15.5 15.75Z" fill="currentColor"/>
<path d="M5 14C5 13.4477 5.44772 13 6 13C6.55228 13 7 13.4477 7 14V16H9C9.55229 16 10 16.4477 10 17C10 17.5523 9.55229 18 9 18H7V20C7 20.5523 6.55228 21 6 21C5.44772 21 5 20.5523 5 20V18H3C2.44772 18 2 17.5523 2 17C2 16.4477 2.44772 16 3 16H5V14Z" fill="currentColor"/>
</svg>
