<svg width="24" height="24" viewBox="0 0 24 24" fill="currentColor" xmlns="http://www.w3.org/2000/svg">
<path fill-rule="evenodd" clip-rule="evenodd" d="M6.5 3C4.567 3 3 4.567 3 6.5V17C3 19.2091 4.79086 21 7 21H18C19.6569 21 21 19.6569 21 18V11C21 9.34315 19.6569 8 18 8H17V5.41176C17 4.07978 15.9202 3 14.5882 3H6.5ZM15 8V5.41176C15 5.18435 14.8156 5 14.5882 5H6.5C5.67157 5 5 5.67157 5 6.5C5 7.32843 5.67157 8 6.5 8H15ZM15.5 15.75C16.1904 15.75 16.75 15.1904 16.75 14.5C16.75 13.8096 16.1904 13.25 15.5 13.25C14.8096 13.25 14.25 13.8096 14.25 14.5C14.25 15.1904 14.8096 15.75 15.5 15.75Z" fill="currentColor"/>
</svg>
