<svg width="24" height="24" viewBox="0 0 24 24" fill="currentColor" xmlns="http://www.w3.org/2000/svg">
<path d="M12.0293 9.41228C10.5828 9.41228 9.44311 10.5744 9.44311 11.9516C9.44311 13.3289 10.6266 14.491 12.0293 14.491C13.4321 14.491 14.6156 13.3289 14.6156 11.9516C14.6156 10.5744 13.4321 9.41228 12.0293 9.41228Z" fill="currentColor"/>
<path fill-rule="evenodd" clip-rule="evenodd" d="M10.844 4.31886C11.5366 3.82826 12.4634 3.82826 13.156 4.31886L22.272 10.776C23.1159 11.3738 23.1159 12.6262 22.272 13.224L13.156 19.6811C12.4634 20.1717 11.5366 20.1717 10.844 19.6811L1.72807 13.224C0.884092 12.6262 0.884108 11.3738 1.72807 10.776L10.844 4.31886ZM11.422 6.38863C11.7683 6.14333 12.2317 6.1433 12.578 6.3886L19.924 11.592C20.2053 11.7913 20.2053 12.2088 19.924 12.408L12.578 17.6114C12.2317 17.8567 11.7683 17.8567 11.422 17.6114L4.07602 12.408C3.79469 12.2088 3.79469 11.7913 4.07602 11.592L11.422 6.38863Z" fill="currentColor"/>
</svg>
